{
	"patcher" : 	{
		"fileversion" : 1,
		"appversion" : 		{
			"major" : 7,
			"minor" : 3,
			"revision" : 4,
			"architecture" : "x64",
			"modernui" : 1
		}
,
		"rect" : [ 34.0, 78.0, 1002.0, 731.0 ],
		"bglocked" : 0,
		"openinpresentation" : 1,
		"default_fontsize" : 12.0,
		"default_fontface" : 0,
		"default_fontname" : "Arial",
		"gridonopen" : 1,
		"gridsize" : [ 15.0, 15.0 ],
		"gridsnaponopen" : 1,
		"objectsnaponopen" : 1,
		"statusbarvisible" : 2,
		"toolbarvisible" : 1,
		"lefttoolbarpinned" : 0,
		"toptoolbarpinned" : 0,
		"righttoolbarpinned" : 0,
		"bottomtoolbarpinned" : 0,
		"toolbars_unpinned_last_save" : 0,
		"tallnewobj" : 0,
		"boxanimatetime" : 200,
		"enablehscroll" : 1,
		"enablevscroll" : 1,
		"devicewidth" : 0.0,
		"description" : "",
		"digest" : "",
		"tags" : "",
		"style" : "",
		"subpatcher_template" : "",
		"boxes" : [ 			{
				"box" : 				{
					"id" : "obj-44",
					"maxclass" : "comment",
					"numinlets" : 1,
					"numoutlets" : 0,
					"patching_rect" : [ 644.0, 602.5, 81.0, 20.0 ],
					"presentation" : 1,
					"presentation_rect" : [ 26.0, 241.0, 81.0, 20.0 ],
					"style" : "",
					"text" : "Active Check"
				}

			}
, 			{
				"box" : 				{
					"id" : "obj-29",
					"maxclass" : "newobj",
					"numinlets" : 1,
					"numoutlets" : 0,
					"patching_rect" : [ 744.0, 855.0, 140.0, 22.0 ],
					"style" : "",
					"text" : "udpsend 127.0.0.1 6209"
				}

			}
, 			{
				"box" : 				{
					"id" : "obj-33",
					"maxclass" : "toggle",
					"numinlets" : 1,
					"numoutlets" : 1,
					"outlettype" : [ "int" ],
					"parameter_enable" : 0,
					"patching_rect" : [ 719.0, 778.0, 24.0, 24.0 ],
					"style" : ""
				}

			}
, 			{
				"box" : 				{
					"id" : "obj-40",
					"maxclass" : "newobj",
					"numinlets" : 2,
					"numoutlets" : 1,
					"outlettype" : [ "" ],
					"patching_rect" : [ 745.0, 810.0, 34.0, 22.0 ],
					"style" : "",
					"text" : "gate"
				}

			}
, 			{
				"box" : 				{
					"id" : "obj-65",
					"maxclass" : "newobj",
					"numinlets" : 1,
					"numoutlets" : 0,
					"patching_rect" : [ 959.0, 855.0, 140.0, 22.0 ],
					"style" : "",
					"text" : "udpsend 127.0.0.1 6209"
				}

			}
, 			{
				"box" : 				{
					"id" : "obj-64",
					"maxclass" : "toggle",
					"numinlets" : 1,
					"numoutlets" : 1,
					"outlettype" : [ "int" ],
					"parameter_enable" : 0,
					"patching_rect" : [ 946.0, 778.0, 24.0, 24.0 ],
					"style" : ""
				}

			}
, 			{
				"box" : 				{
					"id" : "obj-62",
					"maxclass" : "newobj",
					"numinlets" : 2,
					"numoutlets" : 1,
					"outlettype" : [ "" ],
					"patching_rect" : [ 960.0, 810.0, 34.0, 22.0 ],
					"style" : "",
					"text" : "gate"
				}

			}
, 			{
				"box" : 				{
					"id" : "obj-60",
					"maxclass" : "newobj",
					"numinlets" : 1,
					"numoutlets" : 0,
					"patching_rect" : [ 731.0, 720.0, 153.0, 22.0 ],
					"style" : "",
					"text" : "udpsend 192.168.0.3 6209"
				}

			}
, 			{
				"box" : 				{
					"id" : "obj-59",
					"maxclass" : "newobj",
					"numinlets" : 1,
					"numoutlets" : 0,
					"patching_rect" : [ 896.0, 720.0, 180.0, 22.0 ],
					"style" : "",
					"text" : "udpsend 192.168.179.103 6209"
				}

			}
, 			{
				"box" : 				{
					"id" : "obj-53",
					"maxclass" : "newobj",
					"numinlets" : 1,
					"numoutlets" : 1,
					"outlettype" : [ "" ],
					"patching_rect" : [ 896.0, 671.0, 145.0, 22.0 ],
					"style" : "",
					"text" : "prepend res justinesafety"
				}

			}
, 			{
				"box" : 				{
					"id" : "obj-52",
					"maxclass" : "newobj",
					"numinlets" : 1,
					"numoutlets" : 1,
					"outlettype" : [ "" ],
					"patching_rect" : [ 731.0, 671.0, 139.0, 22.0 ],
					"style" : "",
					"text" : "prepend res justinemain"
				}

			}
, 			{
				"box" : 				{
					"activebgoncolor" : [ 0.439216, 0.74902, 0.254902, 1.0 ],
					"id" : "obj-51",
					"maxclass" : "live.button",
					"numinlets" : 1,
					"numoutlets" : 1,
					"outlettype" : [ "" ],
					"parameter_enable" : 1,
					"patching_rect" : [ 942.5, 613.0, 15.0, 15.0 ],
					"presentation" : 1,
					"presentation_rect" : [ 144.5, 243.0, 15.0, 15.0 ],
					"saved_attribute_attributes" : 					{
						"valueof" : 						{
							"parameter_longname" : "live.button[1]",
							"parameter_shortname" : "live.button",
							"parameter_type" : 2,
							"parameter_mmax" : 1.0,
							"parameter_enum" : [ "off", "on" ]
						}

					}
,
					"varname" : "live.button[1]"
				}

			}
, 			{
				"box" : 				{
					"activebgoncolor" : [ 0.439216, 0.74902, 0.254902, 1.0 ],
					"id" : "obj-50",
					"maxclass" : "live.button",
					"numinlets" : 1,
					"numoutlets" : 1,
					"outlettype" : [ "" ],
					"parameter_enable" : 1,
					"patching_rect" : [ 757.0, 606.0, 15.0, 15.0 ],
					"presentation" : 1,
					"presentation_rect" : [ 109.5, 243.0, 15.0, 15.0 ],
					"saved_attribute_attributes" : 					{
						"valueof" : 						{
							"parameter_longname" : "live.button",
							"parameter_shortname" : "live.button",
							"parameter_type" : 2,
							"parameter_mmax" : 1.0,
							"parameter_enum" : [ "off", "on" ]
						}

					}
,
					"varname" : "live.button"
				}

			}
, 			{
				"box" : 				{
					"id" : "obj-43",
					"maxclass" : "message",
					"numinlets" : 2,
					"numoutlets" : 1,
					"outlettype" : [ "" ],
					"patching_rect" : [ 985.0, 606.0, 50.0, 22.0 ],
					"style" : "",
					"text" : "293"
				}

			}
, 			{
				"box" : 				{
					"id" : "obj-41",
					"maxclass" : "message",
					"numinlets" : 2,
					"numoutlets" : 1,
					"outlettype" : [ "" ],
					"patching_rect" : [ 789.5, 602.5, 50.0, 22.0 ],
					"style" : "",
					"text" : "226"
				}

			}
, 			{
				"box" : 				{
					"id" : "obj-39",
					"maxclass" : "newobj",
					"numinlets" : 1,
					"numoutlets" : 1,
					"outlettype" : [ "" ],
					"patching_rect" : [ 228.0, 1011.0, 31.0, 22.0 ],
					"style" : "",
					"text" : "thru"
				}

			}
, 			{
				"box" : 				{
					"id" : "obj-38",
					"maxclass" : "newobj",
					"numinlets" : 2,
					"numoutlets" : 2,
					"outlettype" : [ "", "" ],
					"patching_rect" : [ 896.0, 544.0, 108.0, 22.0 ],
					"style" : "",
					"text" : "route justinesafety"
				}

			}
, 			{
				"box" : 				{
					"id" : "obj-36",
					"maxclass" : "newobj",
					"numinlets" : 2,
					"numoutlets" : 2,
					"outlettype" : [ "", "" ],
					"patching_rect" : [ 731.0, 544.0, 102.0, 22.0 ],
					"style" : "",
					"text" : "route justinemain"
				}

			}
, 			{
				"box" : 				{
					"id" : "obj-34",
					"linecount" : 2,
					"maxclass" : "message",
					"numinlets" : 2,
					"numoutlets" : 1,
					"outlettype" : [ "" ],
					"patching_rect" : [ 625.0, 502.5, 95.0, 35.0 ],
					"style" : "",
					"text" : "justinesafety 293"
				}

			}
, 			{
				"box" : 				{
					"id" : "obj-24",
					"maxclass" : "newobj",
					"numinlets" : 2,
					"numoutlets" : 2,
					"outlettype" : [ "", "" ],
					"patching_rect" : [ 731.0, 451.0, 61.0, 22.0 ],
					"style" : "",
					"text" : "route test"
				}

			}
, 			{
				"box" : 				{
					"id" : "obj-32",
					"maxclass" : "newobj",
					"numinlets" : 1,
					"numoutlets" : 1,
					"outlettype" : [ "int" ],
					"patching_rect" : [ 1387.5, 529.0, 24.0, 22.0 ],
					"style" : "",
					"text" : "t 1"
				}

			}
, 			{
				"box" : 				{
					"id" : "obj-30",
					"maxclass" : "newobj",
					"numinlets" : 1,
					"numoutlets" : 1,
					"outlettype" : [ "int" ],
					"patching_rect" : [ 1401.0, 529.0, 24.0, 22.0 ],
					"style" : "",
					"text" : "t 0"
				}

			}
, 			{
				"box" : 				{
					"id" : "obj-15",
					"maxclass" : "newobj",
					"numinlets" : 3,
					"numoutlets" : 3,
					"outlettype" : [ "bang", "bang", "" ],
					"patching_rect" : [ 1401.0, 488.0, 82.0, 22.0 ],
					"style" : "",
					"text" : "sel 1 3"
				}

			}
, 			{
				"box" : 				{
					"id" : "obj-31",
					"maxclass" : "button",
					"numinlets" : 1,
					"numoutlets" : 1,
					"outlettype" : [ "bang" ],
					"patching_rect" : [ 1312.0, 509.0, 24.0, 24.0 ],
					"style" : ""
				}

			}
, 			{
				"box" : 				{
					"id" : "obj-12",
					"maxclass" : "newobj",
					"numinlets" : 2,
					"numoutlets" : 2,
					"outlettype" : [ "", "" ],
					"patching_rect" : [ 1401.0, 451.0, 145.0, 22.0 ],
					"style" : "",
					"text" : "route /ableton/time/part"
				}

			}
, 			{
				"box" : 				{
					"activebgcolor" : [ 0.317647, 0.654902, 0.976471, 1.0 ],
					"fontsize" : 14.0,
					"id" : "obj-37",
					"ignoreclick" : 1,
					"maxclass" : "live.text",
					"numinlets" : 1,
					"numoutlets" : 2,
					"outlettype" : [ "", "" ],
					"parameter_enable" : 1,
					"patching_rect" : [ 1401.0, 618.0, 109.0, 36.0 ],
					"presentation" : 1,
					"presentation_rect" : [ 25.0, 267.0, 109.0, 36.0 ],
					"saved_attribute_attributes" : 					{
						"valueof" : 						{
							"parameter_longname" : "live.text[1]",
							"parameter_shortname" : "live.text",
							"parameter_type" : 2,
							"parameter_mmax" : 1.0,
							"parameter_enum" : [ "val1", "val2" ],
							"parameter_invisible" : 2
						}

					}
,
					"text" : "First Part",
					"texton" : "Third Part",
					"varname" : "live.text[1]"
				}

			}
, 			{
				"box" : 				{
					"id" : "obj-35",
					"maxclass" : "toggle",
					"numinlets" : 1,
					"numoutlets" : 1,
					"outlettype" : [ "int" ],
					"parameter_enable" : 0,
					"patching_rect" : [ 1401.0, 571.0, 24.0, 24.0 ],
					"style" : ""
				}

			}
, 			{
				"box" : 				{
					"fontface" : 1,
					"fontname" : "Helvetica Neue Bold",
					"fontsize" : 30.0,
					"id" : "obj-28",
					"maxclass" : "comment",
					"numinlets" : 1,
					"numoutlets" : 0,
					"patching_rect" : [ 1172.0, 622.0, 36.0, 42.0 ],
					"presentation" : 1,
					"presentation_rect" : [ 84.0, 308.0, 36.0, 42.0 ],
					"style" : "",
					"text" : ":"
				}

			}
, 			{
				"box" : 				{
					"fontname" : "Arial Bold",
					"fontsize" : 10.0,
					"id" : "obj-17",
					"linecount" : 2,
					"maxclass" : "comment",
					"numinlets" : 1,
					"numoutlets" : 0,
					"patching_rect" : [ 1248.0, 677.0, 46.0, 29.0 ],
					"presentation" : 1,
					"presentation_rect" : [ 108.0, 357.0, 52.0, 18.0 ],
					"style" : "",
					"text" : "Seconds"
				}

			}
, 			{
				"box" : 				{
					"fontname" : "Arial Bold",
					"fontsize" : 10.0,
					"id" : "obj-23",
					"maxclass" : "comment",
					"numinlets" : 1,
					"numoutlets" : 0,
					"patching_rect" : [ 1077.0, 677.0, 46.0, 18.0 ],
					"presentation" : 1,
					"presentation_rect" : [ 25.0, 357.0, 46.0, 18.0 ],
					"style" : "",
					"text" : "Minutes"
				}

			}
, 			{
				"box" : 				{
					"fontname" : "Arial Bold",
					"fontsize" : 10.0,
					"id" : "obj-18",
					"maxclass" : "message",
					"numinlets" : 2,
					"numoutlets" : 1,
					"outlettype" : [ "" ],
					"patching_rect" : [ 1248.0, 602.0, 39.0, 20.0 ],
					"style" : "",
					"text" : "set $1"
				}

			}
, 			{
				"box" : 				{
					"fontname" : "Arial Bold",
					"fontsize" : 36.0,
					"id" : "obj-20",
					"maxclass" : "textedit",
					"numinlets" : 1,
					"numoutlets" : 4,
					"outlettype" : [ "", "int", "", "" ],
					"parameter_enable" : 0,
					"patching_rect" : [ 1248.0, 618.0, 58.0, 50.0 ],
					"presentation" : 1,
					"presentation_rect" : [ 108.0, 305.0, 58.0, 50.0 ],
					"rounded" : 0.0,
					"style" : "",
					"text" : "47"
				}

			}
, 			{
				"box" : 				{
					"fontname" : "Arial Bold",
					"fontsize" : 10.0,
					"id" : "obj-21",
					"maxclass" : "message",
					"numinlets" : 2,
					"numoutlets" : 1,
					"outlettype" : [ "" ],
					"patching_rect" : [ 1077.0, 602.0, 39.0, 20.0 ],
					"style" : "",
					"text" : "set $1"
				}

			}
, 			{
				"box" : 				{
					"fontname" : "Arial Bold",
					"fontsize" : 36.0,
					"id" : "obj-22",
					"maxclass" : "textedit",
					"numinlets" : 1,
					"numoutlets" : 4,
					"outlettype" : [ "", "int", "", "" ],
					"parameter_enable" : 0,
					"patching_rect" : [ 1077.0, 618.0, 53.0, 50.0 ],
					"presentation" : 1,
					"presentation_rect" : [ 25.0, 305.0, 56.0, 50.0 ],
					"rounded" : 0.0,
					"style" : "",
					"text" : "5"
				}

			}
, 			{
				"box" : 				{
					"id" : "obj-16",
					"maxclass" : "number",
					"numinlets" : 1,
					"numoutlets" : 2,
					"outlettype" : [ "", "bang" ],
					"parameter_enable" : 0,
					"patching_rect" : [ 1248.0, 509.0, 50.0, 22.0 ],
					"style" : ""
				}

			}
, 			{
				"box" : 				{
					"id" : "obj-14",
					"maxclass" : "number",
					"numinlets" : 1,
					"numoutlets" : 2,
					"outlettype" : [ "", "bang" ],
					"parameter_enable" : 0,
					"patching_rect" : [ 1077.0, 509.0, 50.0, 22.0 ],
					"style" : ""
				}

			}
, 			{
				"box" : 				{
					"id" : "obj-10",
					"maxclass" : "newobj",
					"numinlets" : 2,
					"numoutlets" : 2,
					"outlettype" : [ "", "" ],
					"patching_rect" : [ 1248.0, 451.0, 152.0, 22.0 ],
					"style" : "",
					"text" : "route /ableton/time/second"
				}

			}
, 			{
				"box" : 				{
					"id" : "obj-4",
					"maxclass" : "newobj",
					"numinlets" : 2,
					"numoutlets" : 2,
					"outlettype" : [ "", "" ],
					"patching_rect" : [ 1077.0, 451.0, 149.0, 22.0 ],
					"style" : "",
					"text" : "route /ableton/time/minute"
				}

			}
, 			{
				"box" : 				{
					"id" : "obj-3",
					"maxclass" : "newobj",
					"numinlets" : 1,
					"numoutlets" : 1,
					"outlettype" : [ "" ],
					"patching_rect" : [ 582.0, 345.0, 99.0, 22.0 ],
					"style" : "",
					"text" : "udpreceive 1235"
				}

			}
, 			{
				"box" : 				{
					"id" : "obj-7",
					"maxclass" : "newobj",
					"numinlets" : 1,
					"numoutlets" : 1,
					"outlettype" : [ "" ],
					"patching_rect" : [ 31.0, 353.0, 20.0, 22.0 ],
					"style" : "",
					"text" : "t l"
				}

			}
, 			{
				"box" : 				{
					"fontsize" : 30.0,
					"id" : "obj-11",
					"maxclass" : "comment",
					"numinlets" : 1,
					"numoutlets" : 0,
					"patching_rect" : [ 26.0, 33.0, 132.0, 40.0 ],
					"presentation" : 1,
					"presentation_rect" : [ 29.5, 22.0, 132.0, 40.0 ],
					"style" : "",
					"text" : "PARADE"
				}

			}
, 			{
				"box" : 				{
					"id" : "obj-27",
					"maxclass" : "newobj",
					"numinlets" : 1,
					"numoutlets" : 0,
					"patching_rect" : [ 252.0, 425.0, 140.0, 22.0 ],
					"style" : "",
					"text" : "udpsend 127.0.0.1 1234"
				}

			}
, 			{
				"box" : 				{
					"id" : "obj-25",
					"maxclass" : "message",
					"numinlets" : 2,
					"numoutlets" : 1,
					"outlettype" : [ "" ],
					"patching_rect" : [ 252.0, 266.0, 215.0, 22.0 ],
					"style" : "",
					"text" : "/millumin/action/launchColumn START"
				}

			}
, 			{
				"box" : 				{
					"id" : "obj-26",
					"maxclass" : "newobj",
					"numinlets" : 1,
					"numoutlets" : 2,
					"outlettype" : [ "bang", "bang" ],
					"patching_rect" : [ 31.0, 213.0, 240.0, 22.0 ],
					"style" : "",
					"text" : "t b b"
				}

			}
, 			{
				"box" : 				{
					"automation" : "Stop",
					"automationon" : "Stop",
					"fontname" : "Helvetica Neue Bold",
					"fontsize" : 25.0,
					"id" : "obj-19",
					"maxclass" : "live.text",
					"mode" : 0,
					"numinlets" : 1,
					"numoutlets" : 2,
					"outlettype" : [ "", "" ],
					"parameter_enable" : 1,
					"patching_rect" : [ 491.0, 103.0, 377.0, 70.0 ],
					"presentation" : 1,
					"presentation_rect" : [ 25.0, 165.0, 141.0, 70.0 ],
					"saved_attribute_attributes" : 					{
						"valueof" : 						{
							"parameter_longname" : "live.text[3]",
							"parameter_shortname" : "live.text",
							"parameter_type" : 2,
							"parameter_mmax" : 1.0,
							"parameter_enum" : [ "Stop", "Stop" ]
						}

					}
,
					"text" : "STOP",
					"varname" : "live.text[3]"
				}

			}
, 			{
				"box" : 				{
					"automation" : "Start from Begining",
					"automationon" : "Start from Begining",
					"fontname" : "Helvetica Neue Bold",
					"fontsize" : 25.0,
					"id" : "obj-9",
					"maxclass" : "live.text",
					"mode" : 0,
					"numinlets" : 1,
					"numoutlets" : 2,
					"outlettype" : [ "", "" ],
					"parameter_enable" : 1,
					"patching_rect" : [ 31.0, 103.0, 377.0, 69.0 ],
					"presentation" : 1,
					"presentation_rect" : [ 25.0, 73.0, 141.0, 69.0 ],
					"saved_attribute_attributes" : 					{
						"valueof" : 						{
							"parameter_longname" : "live.text",
							"parameter_shortname" : "live.text",
							"parameter_type" : 2,
							"parameter_mmax" : 1.0,
							"parameter_enum" : [ "Start from Begining", "Start from Begining" ]
						}

					}
,
					"text" : "START",
					"varname" : "live.text"
				}

			}
, 			{
				"box" : 				{
					"color" : [ 0.941176, 0.690196, 0.196078, 1.0 ],
					"id" : "obj-8",
					"maxclass" : "newobj",
					"numinlets" : 1,
					"numoutlets" : 0,
					"patcher" : 					{
						"fileversion" : 1,
						"appversion" : 						{
							"major" : 7,
							"minor" : 3,
							"revision" : 4,
							"architecture" : "x64",
							"modernui" : 1
						}
,
						"rect" : [ 34.0, 78.0, 822.0, 788.0 ],
						"bglocked" : 0,
						"openinpresentation" : 0,
						"default_fontsize" : 12.0,
						"default_fontface" : 0,
						"default_fontname" : "Arial",
						"gridonopen" : 1,
						"gridsize" : [ 15.0, 15.0 ],
						"gridsnaponopen" : 1,
						"objectsnaponopen" : 1,
						"statusbarvisible" : 2,
						"toolbarvisible" : 1,
						"lefttoolbarpinned" : 0,
						"toptoolbarpinned" : 0,
						"righttoolbarpinned" : 0,
						"bottomtoolbarpinned" : 0,
						"toolbars_unpinned_last_save" : 0,
						"tallnewobj" : 0,
						"boxanimatetime" : 200,
						"enablehscroll" : 1,
						"enablevscroll" : 1,
						"devicewidth" : 0.0,
						"description" : "",
						"digest" : "",
						"tags" : "",
						"style" : "",
						"subpatcher_template" : "",
						"boxes" : [ 							{
								"box" : 								{
									"comment" : "",
									"id" : "obj-5",
									"index" : 1,
									"maxclass" : "inlet",
									"numinlets" : 0,
									"numoutlets" : 1,
									"outlettype" : [ "" ],
									"patching_rect" : [ 45.0, 68.0, 30.0, 30.0 ],
									"style" : ""
								}

							}
, 							{
								"box" : 								{
									"bgcolor" : [ 0.094118, 0.113725, 0.137255, 1.0 ],
									"id" : "obj-63",
									"ignoreclick" : 1,
									"maxclass" : "multislider",
									"numinlets" : 1,
									"numoutlets" : 2,
									"outlettype" : [ "", "" ],
									"parameter_enable" : 0,
									"patching_rect" : [ 1229.5, 956.0, 16.0, 80.0 ],
									"presentation" : 1,
									"presentation_rect" : [ 1387.5, 712.0, 16.0, 95.0 ],
									"setminmax" : [ 0.0, 1.0 ],
									"setstyle" : 1,
									"slidercolor" : [ 0.921569, 0.94902, 0.05098, 1.0 ],
									"spacing" : 4,
									"style" : "",
									"thickness" : 1
								}

							}
, 							{
								"box" : 								{
									"bgcolor" : [ 0.666667, 0.698039, 0.717647, 0.0 ],
									"fontname" : "Arial Bold",
									"fontsize" : 10.0,
									"format" : 6,
									"htricolor" : [ 0.87, 0.82, 0.24, 1.0 ],
									"id" : "obj-64",
									"ignoreclick" : 1,
									"maxclass" : "flonum",
									"numinlets" : 1,
									"numoutlets" : 2,
									"outlettype" : [ "", "bang" ],
									"parameter_enable" : 0,
									"patching_rect" : [ 1229.5, 1038.0, 26.0, 20.0 ],
									"presentation" : 1,
									"presentation_rect" : [ 1387.5, 794.0, 26.0, 20.0 ],
									"style" : "",
									"textcolor" : [ 0.921569, 0.94902, 0.05098, 1.0 ],
									"triangle" : 0,
									"tricolor" : [ 0.921569, 0.94902, 0.05098, 1.0 ],
									"triscale" : 0.75
								}

							}
, 							{
								"box" : 								{
									"fontname" : "Arial Bold",
									"fontsize" : 9.0,
									"id" : "obj-65",
									"maxclass" : "comment",
									"numinlets" : 1,
									"numoutlets" : 0,
									"patching_rect" : [ 1223.0, 937.0, 29.0, 17.0 ],
									"presentation" : 1,
									"presentation_rect" : [ 1381.0, 693.0, 26.0, 17.0 ],
									"style" : "",
									"text" : "Val",
									"textcolor" : [ 0.921569, 0.94902, 0.05098, 1.0 ]
								}

							}
, 							{
								"box" : 								{
									"angle" : 0.0,
									"bgcolor" : [ 0.094118, 0.113725, 0.137255, 1.0 ],
									"id" : "obj-66",
									"maxclass" : "panel",
									"mode" : 0,
									"numinlets" : 1,
									"numoutlets" : 0,
									"patching_rect" : [ 1209.5, 932.0, 56.0, 128.0 ],
									"presentation" : 1,
									"presentation_rect" : [ 1367.5, 688.0, 56.0, 149.0 ],
									"proportion" : 0.39,
									"prototypename" : "M4L.horiz.black",
									"rounded" : 16,
									"style" : ""
								}

							}
, 							{
								"box" : 								{
									"bgcolor" : [ 0.094118, 0.113725, 0.137255, 1.0 ],
									"id" : "obj-67",
									"ignoreclick" : 1,
									"maxclass" : "multislider",
									"numinlets" : 1,
									"numoutlets" : 2,
									"outlettype" : [ "", "" ],
									"parameter_enable" : 0,
									"patching_rect" : [ 803.0, 956.0, 16.0, 80.0 ],
									"presentation" : 1,
									"presentation_rect" : [ 904.5, 748.0, 16.0, 95.0 ],
									"setminmax" : [ 0.0, 1.0 ],
									"setstyle" : 1,
									"slidercolor" : [ 0.921569, 0.94902, 0.05098, 1.0 ],
									"spacing" : 4,
									"style" : "",
									"thickness" : 1
								}

							}
, 							{
								"box" : 								{
									"bgcolor" : [ 0.666667, 0.698039, 0.717647, 0.0 ],
									"fontname" : "Arial Bold",
									"fontsize" : 10.0,
									"format" : 6,
									"htricolor" : [ 0.87, 0.82, 0.24, 1.0 ],
									"id" : "obj-68",
									"ignoreclick" : 1,
									"maxclass" : "flonum",
									"numinlets" : 1,
									"numoutlets" : 2,
									"outlettype" : [ "", "bang" ],
									"parameter_enable" : 0,
									"patching_rect" : [ 803.0, 1038.0, 26.0, 20.0 ],
									"presentation" : 1,
									"presentation_rect" : [ 904.5, 830.0, 26.0, 20.0 ],
									"style" : "",
									"textcolor" : [ 0.921569, 0.94902, 0.05098, 1.0 ],
									"triangle" : 0,
									"tricolor" : [ 0.921569, 0.94902, 0.05098, 1.0 ],
									"triscale" : 0.75
								}

							}
, 							{
								"box" : 								{
									"fontname" : "Arial Bold",
									"fontsize" : 9.0,
									"id" : "obj-69",
									"maxclass" : "comment",
									"numinlets" : 1,
									"numoutlets" : 0,
									"patching_rect" : [ 796.5, 937.0, 29.0, 17.0 ],
									"presentation" : 1,
									"presentation_rect" : [ 898.0, 729.0, 26.0, 17.0 ],
									"style" : "",
									"text" : "Val",
									"textcolor" : [ 0.921569, 0.94902, 0.05098, 1.0 ]
								}

							}
, 							{
								"box" : 								{
									"angle" : 0.0,
									"bgcolor" : [ 0.094118, 0.113725, 0.137255, 1.0 ],
									"id" : "obj-71",
									"maxclass" : "panel",
									"mode" : 0,
									"numinlets" : 1,
									"numoutlets" : 0,
									"patching_rect" : [ 783.0, 932.0, 56.0, 128.0 ],
									"presentation" : 1,
									"presentation_rect" : [ 884.5, 724.0, 56.0, 149.0 ],
									"proportion" : 0.39,
									"prototypename" : "M4L.horiz.black",
									"rounded" : 16,
									"style" : ""
								}

							}
, 							{
								"box" : 								{
									"bgcolor" : [ 0.094118, 0.113725, 0.137255, 1.0 ],
									"id" : "obj-72",
									"ignoreclick" : 1,
									"maxclass" : "multislider",
									"numinlets" : 1,
									"numoutlets" : 2,
									"outlettype" : [ "", "" ],
									"parameter_enable" : 0,
									"patching_rect" : [ 379.5, 958.0, 16.0, 80.0 ],
									"presentation" : 1,
									"presentation_rect" : [ 161.25, 482.0, 16.0, 95.0 ],
									"setminmax" : [ 0.0, 1.0 ],
									"setstyle" : 1,
									"slidercolor" : [ 0.921569, 0.94902, 0.05098, 1.0 ],
									"spacing" : 4,
									"style" : "",
									"thickness" : 1
								}

							}
, 							{
								"box" : 								{
									"bgcolor" : [ 0.666667, 0.698039, 0.717647, 0.0 ],
									"fontname" : "Arial Bold",
									"fontsize" : 10.0,
									"format" : 6,
									"htricolor" : [ 0.87, 0.82, 0.24, 1.0 ],
									"id" : "obj-73",
									"ignoreclick" : 1,
									"maxclass" : "flonum",
									"numinlets" : 1,
									"numoutlets" : 2,
									"outlettype" : [ "", "bang" ],
									"parameter_enable" : 0,
									"patching_rect" : [ 379.5, 1040.0, 26.0, 20.0 ],
									"presentation" : 1,
									"presentation_rect" : [ 161.25, 579.0, 26.0, 20.0 ],
									"style" : "",
									"textcolor" : [ 0.921569, 0.94902, 0.05098, 1.0 ],
									"triangle" : 0,
									"tricolor" : [ 0.921569, 0.94902, 0.05098, 1.0 ],
									"triscale" : 0.75
								}

							}
, 							{
								"box" : 								{
									"fontname" : "Arial Bold",
									"fontsize" : 9.0,
									"id" : "obj-76",
									"maxclass" : "comment",
									"numinlets" : 1,
									"numoutlets" : 0,
									"patching_rect" : [ 373.0, 939.0, 29.0, 17.0 ],
									"presentation" : 1,
									"presentation_rect" : [ 154.75, 463.0, 26.0, 17.0 ],
									"style" : "",
									"text" : "Val",
									"textcolor" : [ 0.921569, 0.94902, 0.05098, 1.0 ]
								}

							}
, 							{
								"box" : 								{
									"angle" : 0.0,
									"bgcolor" : [ 0.094118, 0.113725, 0.137255, 1.0 ],
									"id" : "obj-77",
									"maxclass" : "panel",
									"mode" : 0,
									"numinlets" : 1,
									"numoutlets" : 0,
									"patching_rect" : [ 359.5, 934.0, 56.0, 128.0 ],
									"presentation" : 1,
									"presentation_rect" : [ 141.25, 458.0, 56.0, 149.0 ],
									"proportion" : 0.39,
									"prototypename" : "M4L.horiz.black",
									"rounded" : 16,
									"style" : ""
								}

							}
, 							{
								"box" : 								{
									"id" : "obj-78",
									"maxclass" : "message",
									"numinlets" : 2,
									"numoutlets" : 1,
									"outlettype" : [ "" ],
									"patching_rect" : [ 906.0, 971.0, 50.0, 22.0 ],
									"style" : "",
									"text" : "1."
								}

							}
, 							{
								"box" : 								{
									"id" : "obj-79",
									"maxclass" : "message",
									"numinlets" : 2,
									"numoutlets" : 1,
									"outlettype" : [ "" ],
									"patching_rect" : [ 501.5, 967.0, 50.0, 22.0 ],
									"style" : "",
									"text" : "1."
								}

							}
, 							{
								"box" : 								{
									"id" : "obj-80",
									"maxclass" : "message",
									"numinlets" : 2,
									"numoutlets" : 1,
									"outlettype" : [ "" ],
									"patching_rect" : [ 69.0, 976.0, 50.0, 22.0 ],
									"style" : "",
									"text" : "1."
								}

							}
, 							{
								"box" : 								{
									"id" : "obj-81",
									"maxclass" : "newobj",
									"numinlets" : 2,
									"numoutlets" : 2,
									"outlettype" : [ "", "" ],
									"patching_rect" : [ 882.0, 932.0, 295.0, 22.0 ],
									"style" : "",
									"text" : "route /millumin/layer:opacity_synch/effect2/brightness"
								}

							}
, 							{
								"box" : 								{
									"id" : "obj-82",
									"maxclass" : "newobj",
									"numinlets" : 2,
									"numoutlets" : 2,
									"outlettype" : [ "", "" ],
									"patching_rect" : [ 469.5, 933.0, 276.0, 22.0 ],
									"style" : "",
									"text" : "route /millumin/layer:row_synch/effect2/brightness"
								}

							}
, 							{
								"box" : 								{
									"id" : "obj-84",
									"maxclass" : "newobj",
									"numinlets" : 2,
									"numoutlets" : 2,
									"outlettype" : [ "", "" ],
									"patching_rect" : [ 44.0, 933.0, 280.0, 22.0 ],
									"style" : "",
									"text" : "route /millumin/layer:both_synch/effect2/brightness"
								}

							}
, 							{
								"box" : 								{
									"fontname" : "Helvetica Neue Bold",
									"fontsize" : 15.0,
									"id" : "obj-61",
									"maxclass" : "comment",
									"numinlets" : 1,
									"numoutlets" : 0,
									"patching_rect" : [ 98.0, 108.0, 103.0, 24.0 ],
									"style" : "",
									"text" : "OSC Monitor"
								}

							}
, 							{
								"box" : 								{
									"bgcolor" : [ 0.094118, 0.113725, 0.137255, 1.0 ],
									"id" : "obj-49",
									"ignoreclick" : 1,
									"maxclass" : "multislider",
									"numinlets" : 1,
									"numoutlets" : 2,
									"outlettype" : [ "", "" ],
									"parameter_enable" : 0,
									"patching_rect" : [ 1231.5, 761.0, 16.0, 80.0 ],
									"presentation" : 1,
									"presentation_rect" : [ 1372.5, 697.0, 16.0, 95.0 ],
									"setminmax" : [ 0.0, 1.0 ],
									"setstyle" : 1,
									"slidercolor" : [ 0.921569, 0.94902, 0.05098, 1.0 ],
									"spacing" : 4,
									"style" : "",
									"thickness" : 1
								}

							}
, 							{
								"box" : 								{
									"bgcolor" : [ 0.666667, 0.698039, 0.717647, 0.0 ],
									"fontname" : "Arial Bold",
									"fontsize" : 10.0,
									"format" : 6,
									"htricolor" : [ 0.87, 0.82, 0.24, 1.0 ],
									"id" : "obj-50",
									"ignoreclick" : 1,
									"maxclass" : "flonum",
									"numinlets" : 1,
									"numoutlets" : 2,
									"outlettype" : [ "", "bang" ],
									"parameter_enable" : 0,
									"patching_rect" : [ 1231.5, 843.0, 26.0, 20.0 ],
									"presentation" : 1,
									"presentation_rect" : [ 1372.5, 779.0, 26.0, 20.0 ],
									"style" : "",
									"textcolor" : [ 0.921569, 0.94902, 0.05098, 1.0 ],
									"triangle" : 0,
									"tricolor" : [ 0.921569, 0.94902, 0.05098, 1.0 ],
									"triscale" : 0.75
								}

							}
, 							{
								"box" : 								{
									"fontname" : "Arial Bold",
									"fontsize" : 9.0,
									"id" : "obj-51",
									"maxclass" : "comment",
									"numinlets" : 1,
									"numoutlets" : 0,
									"patching_rect" : [ 1225.0, 742.0, 29.0, 17.0 ],
									"presentation" : 1,
									"presentation_rect" : [ 1366.0, 678.0, 26.0, 17.0 ],
									"style" : "",
									"text" : "Val",
									"textcolor" : [ 0.921569, 0.94902, 0.05098, 1.0 ]
								}

							}
, 							{
								"box" : 								{
									"angle" : 0.0,
									"bgcolor" : [ 0.094118, 0.113725, 0.137255, 1.0 ],
									"id" : "obj-52",
									"maxclass" : "panel",
									"mode" : 0,
									"numinlets" : 1,
									"numoutlets" : 0,
									"patching_rect" : [ 1211.5, 737.0, 56.0, 128.0 ],
									"presentation" : 1,
									"presentation_rect" : [ 1352.5, 673.0, 56.0, 149.0 ],
									"proportion" : 0.39,
									"prototypename" : "M4L.horiz.black",
									"rounded" : 16,
									"style" : ""
								}

							}
, 							{
								"box" : 								{
									"bgcolor" : [ 0.094118, 0.113725, 0.137255, 1.0 ],
									"id" : "obj-45",
									"ignoreclick" : 1,
									"maxclass" : "multislider",
									"numinlets" : 1,
									"numoutlets" : 2,
									"outlettype" : [ "", "" ],
									"parameter_enable" : 0,
									"patching_rect" : [ 1231.5, 428.0, 16.0, 80.0 ],
									"presentation" : 1,
									"presentation_rect" : [ 1369.5, 409.0, 16.0, 95.0 ],
									"setminmax" : [ 0.0, 1.0 ],
									"setstyle" : 1,
									"slidercolor" : [ 0.921569, 0.94902, 0.05098, 1.0 ],
									"spacing" : 4,
									"style" : "",
									"thickness" : 1
								}

							}
, 							{
								"box" : 								{
									"bgcolor" : [ 0.666667, 0.698039, 0.717647, 0.0 ],
									"fontname" : "Arial Bold",
									"fontsize" : 10.0,
									"format" : 6,
									"htricolor" : [ 0.87, 0.82, 0.24, 1.0 ],
									"id" : "obj-46",
									"ignoreclick" : 1,
									"maxclass" : "flonum",
									"numinlets" : 1,
									"numoutlets" : 2,
									"outlettype" : [ "", "bang" ],
									"parameter_enable" : 0,
									"patching_rect" : [ 1231.5, 510.0, 26.0, 20.0 ],
									"presentation" : 1,
									"presentation_rect" : [ 1369.5, 491.0, 26.0, 20.0 ],
									"style" : "",
									"textcolor" : [ 0.921569, 0.94902, 0.05098, 1.0 ],
									"triangle" : 0,
									"tricolor" : [ 0.921569, 0.94902, 0.05098, 1.0 ],
									"triscale" : 0.75
								}

							}
, 							{
								"box" : 								{
									"fontname" : "Arial Bold",
									"fontsize" : 9.0,
									"id" : "obj-47",
									"maxclass" : "comment",
									"numinlets" : 1,
									"numoutlets" : 0,
									"patching_rect" : [ 1225.0, 409.0, 29.0, 17.0 ],
									"presentation" : 1,
									"presentation_rect" : [ 1363.0, 390.0, 26.0, 17.0 ],
									"style" : "",
									"text" : "Val",
									"textcolor" : [ 0.921569, 0.94902, 0.05098, 1.0 ]
								}

							}
, 							{
								"box" : 								{
									"angle" : 0.0,
									"bgcolor" : [ 0.094118, 0.113725, 0.137255, 1.0 ],
									"id" : "obj-48",
									"maxclass" : "panel",
									"mode" : 0,
									"numinlets" : 1,
									"numoutlets" : 0,
									"patching_rect" : [ 1211.5, 404.0, 56.0, 128.0 ],
									"presentation" : 1,
									"presentation_rect" : [ 1349.5, 385.0, 56.0, 149.0 ],
									"proportion" : 0.39,
									"prototypename" : "M4L.horiz.black",
									"rounded" : 16,
									"style" : ""
								}

							}
, 							{
								"box" : 								{
									"bgcolor" : [ 0.094118, 0.113725, 0.137255, 1.0 ],
									"id" : "obj-41",
									"ignoreclick" : 1,
									"maxclass" : "multislider",
									"numinlets" : 1,
									"numoutlets" : 2,
									"outlettype" : [ "", "" ],
									"parameter_enable" : 0,
									"patching_rect" : [ 805.0, 416.0, 16.0, 80.0 ],
									"presentation" : 1,
									"presentation_rect" : [ 330.0, 44.0, 16.0, 95.0 ],
									"setminmax" : [ 0.0, 1.0 ],
									"setstyle" : 1,
									"slidercolor" : [ 0.921569, 0.94902, 0.05098, 1.0 ],
									"spacing" : 4,
									"style" : "",
									"thickness" : 1
								}

							}
, 							{
								"box" : 								{
									"bgcolor" : [ 0.666667, 0.698039, 0.717647, 0.0 ],
									"fontname" : "Arial Bold",
									"fontsize" : 10.0,
									"format" : 6,
									"htricolor" : [ 0.87, 0.82, 0.24, 1.0 ],
									"id" : "obj-42",
									"ignoreclick" : 1,
									"maxclass" : "flonum",
									"numinlets" : 1,
									"numoutlets" : 2,
									"outlettype" : [ "", "bang" ],
									"parameter_enable" : 0,
									"patching_rect" : [ 805.0, 498.0, 26.0, 20.0 ],
									"presentation" : 1,
									"presentation_rect" : [ 330.0, 138.0, 26.0, 20.0 ],
									"style" : "",
									"textcolor" : [ 0.921569, 0.94902, 0.05098, 1.0 ],
									"triangle" : 0,
									"tricolor" : [ 0.921569, 0.94902, 0.05098, 1.0 ],
									"triscale" : 0.75
								}

							}
, 							{
								"box" : 								{
									"fontname" : "Arial Bold",
									"fontsize" : 9.0,
									"id" : "obj-43",
									"maxclass" : "comment",
									"numinlets" : 1,
									"numoutlets" : 0,
									"patching_rect" : [ 798.5, 397.0, 29.0, 17.0 ],
									"presentation" : 1,
									"presentation_rect" : [ 323.5, 25.0, 26.0, 17.0 ],
									"style" : "",
									"text" : "Val",
									"textcolor" : [ 0.921569, 0.94902, 0.05098, 1.0 ]
								}

							}
, 							{
								"box" : 								{
									"angle" : 0.0,
									"bgcolor" : [ 0.094118, 0.113725, 0.137255, 1.0 ],
									"id" : "obj-44",
									"maxclass" : "panel",
									"mode" : 0,
									"numinlets" : 1,
									"numoutlets" : 0,
									"patching_rect" : [ 785.0, 392.0, 56.0, 128.0 ],
									"presentation" : 1,
									"presentation_rect" : [ 310.0, 20.0, 56.0, 149.0 ],
									"proportion" : 0.39,
									"prototypename" : "M4L.horiz.black",
									"rounded" : 16,
									"style" : ""
								}

							}
, 							{
								"box" : 								{
									"bgcolor" : [ 0.094118, 0.113725, 0.137255, 1.0 ],
									"id" : "obj-37",
									"ignoreclick" : 1,
									"maxclass" : "multislider",
									"numinlets" : 1,
									"numoutlets" : 2,
									"outlettype" : [ "", "" ],
									"parameter_enable" : 0,
									"patching_rect" : [ 805.0, 586.0, 16.0, 80.0 ],
									"presentation" : 1,
									"presentation_rect" : [ 898.5, 539.0, 16.0, 95.0 ],
									"setminmax" : [ 0.0, 1.0 ],
									"setstyle" : 1,
									"slidercolor" : [ 0.921569, 0.94902, 0.05098, 1.0 ],
									"spacing" : 4,
									"style" : "",
									"thickness" : 1
								}

							}
, 							{
								"box" : 								{
									"bgcolor" : [ 0.666667, 0.698039, 0.717647, 0.0 ],
									"fontname" : "Arial Bold",
									"fontsize" : 10.0,
									"format" : 6,
									"htricolor" : [ 0.87, 0.82, 0.24, 1.0 ],
									"id" : "obj-38",
									"ignoreclick" : 1,
									"maxclass" : "flonum",
									"numinlets" : 1,
									"numoutlets" : 2,
									"outlettype" : [ "", "bang" ],
									"parameter_enable" : 0,
									"patching_rect" : [ 805.0, 668.0, 26.0, 20.0 ],
									"presentation" : 1,
									"presentation_rect" : [ 898.5, 621.0, 26.0, 20.0 ],
									"style" : "",
									"textcolor" : [ 0.921569, 0.94902, 0.05098, 1.0 ],
									"triangle" : 0,
									"tricolor" : [ 0.921569, 0.94902, 0.05098, 1.0 ],
									"triscale" : 0.75
								}

							}
, 							{
								"box" : 								{
									"fontname" : "Arial Bold",
									"fontsize" : 9.0,
									"id" : "obj-39",
									"maxclass" : "comment",
									"numinlets" : 1,
									"numoutlets" : 0,
									"patching_rect" : [ 798.5, 567.0, 29.0, 17.0 ],
									"presentation" : 1,
									"presentation_rect" : [ 892.0, 520.0, 26.0, 17.0 ],
									"style" : "",
									"text" : "Val",
									"textcolor" : [ 0.921569, 0.94902, 0.05098, 1.0 ]
								}

							}
, 							{
								"box" : 								{
									"angle" : 0.0,
									"bgcolor" : [ 0.094118, 0.113725, 0.137255, 1.0 ],
									"id" : "obj-40",
									"maxclass" : "panel",
									"mode" : 0,
									"numinlets" : 1,
									"numoutlets" : 0,
									"patching_rect" : [ 785.0, 562.0, 56.0, 128.0 ],
									"presentation" : 1,
									"presentation_rect" : [ 878.5, 515.0, 56.0, 149.0 ],
									"proportion" : 0.39,
									"prototypename" : "M4L.horiz.black",
									"rounded" : 16,
									"style" : ""
								}

							}
, 							{
								"box" : 								{
									"bgcolor" : [ 0.094118, 0.113725, 0.137255, 1.0 ],
									"id" : "obj-33",
									"ignoreclick" : 1,
									"maxclass" : "multislider",
									"numinlets" : 1,
									"numoutlets" : 2,
									"outlettype" : [ "", "" ],
									"parameter_enable" : 0,
									"patching_rect" : [ 805.0, 761.0, 16.0, 80.0 ],
									"presentation" : 1,
									"presentation_rect" : [ 889.5, 733.0, 16.0, 95.0 ],
									"setminmax" : [ 0.0, 1.0 ],
									"setstyle" : 1,
									"slidercolor" : [ 0.921569, 0.94902, 0.05098, 1.0 ],
									"spacing" : 4,
									"style" : "",
									"thickness" : 1
								}

							}
, 							{
								"box" : 								{
									"bgcolor" : [ 0.666667, 0.698039, 0.717647, 0.0 ],
									"fontname" : "Arial Bold",
									"fontsize" : 10.0,
									"format" : 6,
									"htricolor" : [ 0.87, 0.82, 0.24, 1.0 ],
									"id" : "obj-1",
									"ignoreclick" : 1,
									"maxclass" : "flonum",
									"numinlets" : 1,
									"numoutlets" : 2,
									"outlettype" : [ "", "bang" ],
									"parameter_enable" : 0,
									"patching_rect" : [ 805.0, 843.0, 26.0, 20.0 ],
									"presentation" : 1,
									"presentation_rect" : [ 889.5, 815.0, 26.0, 20.0 ],
									"style" : "",
									"textcolor" : [ 0.921569, 0.94902, 0.05098, 1.0 ],
									"triangle" : 0,
									"tricolor" : [ 0.921569, 0.94902, 0.05098, 1.0 ],
									"triscale" : 0.75
								}

							}
, 							{
								"box" : 								{
									"fontname" : "Arial Bold",
									"fontsize" : 9.0,
									"id" : "obj-35",
									"maxclass" : "comment",
									"numinlets" : 1,
									"numoutlets" : 0,
									"patching_rect" : [ 798.5, 742.0, 29.0, 17.0 ],
									"presentation" : 1,
									"presentation_rect" : [ 883.0, 714.0, 26.0, 17.0 ],
									"style" : "",
									"text" : "Val",
									"textcolor" : [ 0.921569, 0.94902, 0.05098, 1.0 ]
								}

							}
, 							{
								"box" : 								{
									"angle" : 0.0,
									"bgcolor" : [ 0.094118, 0.113725, 0.137255, 1.0 ],
									"id" : "obj-36",
									"maxclass" : "panel",
									"mode" : 0,
									"numinlets" : 1,
									"numoutlets" : 0,
									"patching_rect" : [ 785.0, 737.0, 56.0, 128.0 ],
									"presentation" : 1,
									"presentation_rect" : [ 869.5, 709.0, 56.0, 149.0 ],
									"proportion" : 0.39,
									"prototypename" : "M4L.horiz.black",
									"rounded" : 16,
									"style" : ""
								}

							}
, 							{
								"box" : 								{
									"bgcolor" : [ 0.094118, 0.113725, 0.137255, 1.0 ],
									"id" : "obj-12",
									"ignoreclick" : 1,
									"maxclass" : "multislider",
									"numinlets" : 1,
									"numoutlets" : 2,
									"outlettype" : [ "", "" ],
									"parameter_enable" : 0,
									"patching_rect" : [ 381.5, 763.0, 16.0, 80.0 ],
									"presentation" : 1,
									"presentation_rect" : [ 146.25, 467.0, 16.0, 95.0 ],
									"setminmax" : [ 0.0, 1.0 ],
									"setstyle" : 1,
									"slidercolor" : [ 0.921569, 0.94902, 0.05098, 1.0 ],
									"spacing" : 4,
									"style" : "",
									"thickness" : 1
								}

							}
, 							{
								"box" : 								{
									"bgcolor" : [ 0.666667, 0.698039, 0.717647, 0.0 ],
									"fontname" : "Arial Bold",
									"fontsize" : 10.0,
									"format" : 6,
									"htricolor" : [ 0.87, 0.82, 0.24, 1.0 ],
									"id" : "obj-21",
									"ignoreclick" : 1,
									"maxclass" : "flonum",
									"numinlets" : 1,
									"numoutlets" : 2,
									"outlettype" : [ "", "bang" ],
									"parameter_enable" : 0,
									"patching_rect" : [ 381.5, 845.0, 26.0, 20.0 ],
									"presentation" : 1,
									"presentation_rect" : [ 146.25, 564.0, 26.0, 20.0 ],
									"style" : "",
									"textcolor" : [ 0.921569, 0.94902, 0.05098, 1.0 ],
									"triangle" : 0,
									"tricolor" : [ 0.921569, 0.94902, 0.05098, 1.0 ],
									"triscale" : 0.75
								}

							}
, 							{
								"box" : 								{
									"fontname" : "Arial Bold",
									"fontsize" : 9.0,
									"id" : "obj-24",
									"maxclass" : "comment",
									"numinlets" : 1,
									"numoutlets" : 0,
									"patching_rect" : [ 375.0, 744.0, 29.0, 17.0 ],
									"presentation" : 1,
									"presentation_rect" : [ 139.75, 448.0, 26.0, 17.0 ],
									"style" : "",
									"text" : "Val",
									"textcolor" : [ 0.921569, 0.94902, 0.05098, 1.0 ]
								}

							}
, 							{
								"box" : 								{
									"angle" : 0.0,
									"bgcolor" : [ 0.094118, 0.113725, 0.137255, 1.0 ],
									"id" : "obj-28",
									"maxclass" : "panel",
									"mode" : 0,
									"numinlets" : 1,
									"numoutlets" : 0,
									"patching_rect" : [ 361.5, 739.0, 56.0, 128.0 ],
									"presentation" : 1,
									"presentation_rect" : [ 126.25, 443.0, 56.0, 149.0 ],
									"proportion" : 0.39,
									"prototypename" : "M4L.horiz.black",
									"rounded" : 16,
									"style" : ""
								}

							}
, 							{
								"box" : 								{
									"bgcolor" : [ 0.094118, 0.113725, 0.137255, 1.0 ],
									"id" : "obj-2",
									"ignoreclick" : 1,
									"maxclass" : "multislider",
									"numinlets" : 1,
									"numoutlets" : 2,
									"outlettype" : [ "", "" ],
									"parameter_enable" : 0,
									"patching_rect" : [ 381.5, 586.0, 16.0, 80.0 ],
									"presentation" : 1,
									"presentation_rect" : [ 146.25, 260.0, 16.0, 95.0 ],
									"setminmax" : [ 0.0, 1.0 ],
									"setstyle" : 1,
									"slidercolor" : [ 0.921569, 0.94902, 0.05098, 1.0 ],
									"spacing" : 4,
									"style" : "",
									"thickness" : 1
								}

							}
, 							{
								"box" : 								{
									"bgcolor" : [ 0.666667, 0.698039, 0.717647, 0.0 ],
									"fontname" : "Arial Bold",
									"fontsize" : 10.0,
									"format" : 6,
									"htricolor" : [ 0.87, 0.82, 0.24, 1.0 ],
									"id" : "obj-6",
									"ignoreclick" : 1,
									"maxclass" : "flonum",
									"numinlets" : 1,
									"numoutlets" : 2,
									"outlettype" : [ "", "bang" ],
									"parameter_enable" : 0,
									"patching_rect" : [ 381.5, 668.0, 26.0, 20.0 ],
									"presentation" : 1,
									"presentation_rect" : [ 146.25, 357.0, 26.0, 20.0 ],
									"style" : "",
									"textcolor" : [ 0.921569, 0.94902, 0.05098, 1.0 ],
									"triangle" : 0,
									"tricolor" : [ 0.921569, 0.94902, 0.05098, 1.0 ],
									"triscale" : 0.75
								}

							}
, 							{
								"box" : 								{
									"fontname" : "Arial Bold",
									"fontsize" : 9.0,
									"id" : "obj-10",
									"maxclass" : "comment",
									"numinlets" : 1,
									"numoutlets" : 0,
									"patching_rect" : [ 375.0, 567.0, 29.0, 17.0 ],
									"presentation" : 1,
									"presentation_rect" : [ 139.75, 241.0, 26.0, 17.0 ],
									"style" : "",
									"text" : "Val",
									"textcolor" : [ 0.921569, 0.94902, 0.05098, 1.0 ]
								}

							}
, 							{
								"box" : 								{
									"angle" : 0.0,
									"bgcolor" : [ 0.094118, 0.113725, 0.137255, 1.0 ],
									"id" : "obj-11",
									"maxclass" : "panel",
									"mode" : 0,
									"numinlets" : 1,
									"numoutlets" : 0,
									"patching_rect" : [ 361.5, 562.0, 56.0, 128.0 ],
									"presentation" : 1,
									"presentation_rect" : [ 126.25, 236.0, 56.0, 149.0 ],
									"proportion" : 0.39,
									"prototypename" : "M4L.horiz.black",
									"rounded" : 16,
									"style" : ""
								}

							}
, 							{
								"box" : 								{
									"bgcolor" : [ 0.094118, 0.113725, 0.137255, 1.0 ],
									"id" : "obj-75",
									"ignoreclick" : 1,
									"maxclass" : "multislider",
									"numinlets" : 1,
									"numoutlets" : 2,
									"outlettype" : [ "", "" ],
									"parameter_enable" : 0,
									"patching_rect" : [ 381.5, 421.0, 16.0, 80.0 ],
									"presentation" : 1,
									"presentation_rect" : [ 146.25, 39.0, 16.0, 95.0 ],
									"setminmax" : [ 0.0, 1.0 ],
									"setstyle" : 1,
									"slidercolor" : [ 0.921569, 0.94902, 0.05098, 1.0 ],
									"spacing" : 4,
									"style" : "",
									"thickness" : 1
								}

							}
, 							{
								"box" : 								{
									"bgcolor" : [ 0.666667, 0.698039, 0.717647, 0.0 ],
									"fontname" : "Arial Bold",
									"fontsize" : 10.0,
									"format" : 6,
									"htricolor" : [ 0.87, 0.82, 0.24, 1.0 ],
									"id" : "obj-83",
									"ignoreclick" : 1,
									"maxclass" : "flonum",
									"numinlets" : 1,
									"numoutlets" : 2,
									"outlettype" : [ "", "bang" ],
									"parameter_enable" : 0,
									"patching_rect" : [ 381.5, 503.0, 26.0, 20.0 ],
									"presentation" : 1,
									"presentation_rect" : [ 141.25, 136.0, 26.0, 20.0 ],
									"style" : "",
									"textcolor" : [ 0.921569, 0.94902, 0.05098, 1.0 ],
									"triangle" : 0,
									"tricolor" : [ 0.921569, 0.94902, 0.05098, 1.0 ],
									"triscale" : 0.75
								}

							}
, 							{
								"box" : 								{
									"fontname" : "Arial Bold",
									"fontsize" : 9.0,
									"id" : "obj-74",
									"maxclass" : "comment",
									"numinlets" : 1,
									"numoutlets" : 0,
									"patching_rect" : [ 375.0, 402.0, 29.0, 17.0 ],
									"presentation" : 1,
									"presentation_rect" : [ 141.25, 20.0, 26.0, 17.0 ],
									"style" : "",
									"text" : "Val",
									"textcolor" : [ 0.921569, 0.94902, 0.05098, 1.0 ]
								}

							}
, 							{
								"box" : 								{
									"angle" : 0.0,
									"bgcolor" : [ 0.094118, 0.113725, 0.137255, 1.0 ],
									"id" : "obj-70",
									"maxclass" : "panel",
									"mode" : 0,
									"numinlets" : 1,
									"numoutlets" : 0,
									"patching_rect" : [ 361.5, 397.0, 56.0, 128.0 ],
									"presentation" : 1,
									"presentation_rect" : [ 126.25, 11.0, 56.0, 149.0 ],
									"proportion" : 0.39,
									"prototypename" : "M4L.horiz.black",
									"rounded" : 16,
									"style" : ""
								}

							}
, 							{
								"box" : 								{
									"id" : "obj-32",
									"maxclass" : "message",
									"numinlets" : 2,
									"numoutlets" : 1,
									"outlettype" : [ "" ],
									"patching_rect" : [ 908.0, 776.0, 50.0, 22.0 ],
									"style" : "",
									"text" : "0"
								}

							}
, 							{
								"box" : 								{
									"id" : "obj-31",
									"maxclass" : "message",
									"numinlets" : 2,
									"numoutlets" : 1,
									"outlettype" : [ "" ],
									"patching_rect" : [ 496.0, 428.0, 50.0, 22.0 ],
									"style" : "",
									"text" : "1."
								}

							}
, 							{
								"box" : 								{
									"id" : "obj-30",
									"maxclass" : "message",
									"numinlets" : 2,
									"numoutlets" : 1,
									"outlettype" : [ "" ],
									"patching_rect" : [ 503.5, 772.0, 50.0, 22.0 ],
									"style" : "",
									"text" : "0"
								}

							}
, 							{
								"box" : 								{
									"id" : "obj-29",
									"linecount" : 2,
									"maxclass" : "message",
									"numinlets" : 2,
									"numoutlets" : 1,
									"outlettype" : [ "" ],
									"patching_rect" : [ 71.0, 433.0, 52.0, 35.0 ],
									"style" : "",
									"text" : "0.878245"
								}

							}
, 							{
								"box" : 								{
									"id" : "obj-25",
									"maxclass" : "message",
									"numinlets" : 2,
									"numoutlets" : 1,
									"outlettype" : [ "" ],
									"patching_rect" : [ 71.0, 781.0, 50.0, 22.0 ],
									"style" : "",
									"text" : "0"
								}

							}
, 							{
								"box" : 								{
									"id" : "obj-23",
									"maxclass" : "newobj",
									"numinlets" : 1,
									"numoutlets" : 1,
									"outlettype" : [ "" ],
									"patching_rect" : [ 884.0, 342.0, 20.0, 22.0 ],
									"style" : "",
									"text" : "t l"
								}

							}
, 							{
								"box" : 								{
									"id" : "obj-22",
									"maxclass" : "newobj",
									"numinlets" : 1,
									"numoutlets" : 1,
									"outlettype" : [ "" ],
									"patching_rect" : [ 460.0, 343.0, 20.0, 22.0 ],
									"style" : "",
									"text" : "t l"
								}

							}
, 							{
								"box" : 								{
									"id" : "obj-17",
									"maxclass" : "newobj",
									"numinlets" : 2,
									"numoutlets" : 2,
									"outlettype" : [ "", "" ],
									"patching_rect" : [ 884.0, 737.0, 282.0, 22.0 ],
									"style" : "",
									"text" : "route /millumin/layer:opacity_synch/effect2/enabled"
								}

							}
, 							{
								"box" : 								{
									"id" : "obj-13",
									"maxclass" : "newobj",
									"numinlets" : 2,
									"numoutlets" : 2,
									"outlettype" : [ "", "" ],
									"patching_rect" : [ 464.0, 392.0, 220.0, 22.0 ],
									"style" : "",
									"text" : "route /millumin/layer:row_synch/opacity"
								}

							}
, 							{
								"box" : 								{
									"id" : "obj-14",
									"maxclass" : "newobj",
									"numinlets" : 2,
									"numoutlets" : 2,
									"outlettype" : [ "", "" ],
									"patching_rect" : [ 471.5, 738.0, 264.0, 22.0 ],
									"style" : "",
									"text" : "route /millumin/layer:row_synch/effect2/enabled"
								}

							}
, 							{
								"box" : 								{
									"id" : "obj-15",
									"maxclass" : "newobj",
									"numinlets" : 2,
									"numoutlets" : 2,
									"outlettype" : [ "", "" ],
									"patching_rect" : [ 46.0, 392.0, 224.0, 22.0 ],
									"style" : "",
									"text" : "route /millumin/layer:both_synch/opacity"
								}

							}
, 							{
								"box" : 								{
									"id" : "obj-16",
									"maxclass" : "newobj",
									"numinlets" : 2,
									"numoutlets" : 2,
									"outlettype" : [ "", "" ],
									"patching_rect" : [ 46.0, 738.0, 268.0, 22.0 ],
									"style" : "",
									"text" : "route /millumin/layer:both_synch/effect2/enabled"
								}

							}
, 							{
								"box" : 								{
									"id" : "obj-19",
									"maxclass" : "newobj",
									"numinlets" : 1,
									"numoutlets" : 1,
									"outlettype" : [ "" ],
									"patching_rect" : [ 46.0, 276.0, 20.0, 22.0 ],
									"style" : "",
									"text" : "t l"
								}

							}
, 							{
								"box" : 								{
									"id" : "obj-18",
									"maxclass" : "toggle",
									"numinlets" : 1,
									"numoutlets" : 1,
									"outlettype" : [ "int" ],
									"parameter_enable" : 0,
									"patching_rect" : [ 89.5, 168.0, 24.0, 24.0 ],
									"style" : ""
								}

							}
, 							{
								"box" : 								{
									"id" : "obj-20",
									"maxclass" : "newobj",
									"numinlets" : 2,
									"numoutlets" : 1,
									"outlettype" : [ "" ],
									"patching_rect" : [ 89.5, 202.0, 64.0, 22.0 ],
									"style" : "",
									"text" : "gate"
								}

							}
, 							{
								"box" : 								{
									"id" : "obj-26",
									"maxclass" : "newobj",
									"numinlets" : 1,
									"numoutlets" : 0,
									"patching_rect" : [ 89.5, 242.0, 34.0, 22.0 ],
									"style" : "",
									"text" : "print"
								}

							}
, 							{
								"box" : 								{
									"id" : "obj-27",
									"maxclass" : "message",
									"numinlets" : 2,
									"numoutlets" : 1,
									"outlettype" : [ "" ],
									"patching_rect" : [ 46.0, 606.0, 60.0, 22.0 ],
									"style" : "",
									"text" : "0.878245"
								}

							}
, 							{
								"box" : 								{
									"id" : "obj-53",
									"maxclass" : "message",
									"numinlets" : 2,
									"numoutlets" : 1,
									"outlettype" : [ "" ],
									"patching_rect" : [ 893.0, 452.0, 60.0, 22.0 ],
									"style" : "",
									"text" : "0.878245"
								}

							}
, 							{
								"box" : 								{
									"id" : "obj-54",
									"maxclass" : "message",
									"numinlets" : 2,
									"numoutlets" : 1,
									"outlettype" : [ "" ],
									"patching_rect" : [ 460.0, 610.0, 60.0, 22.0 ],
									"style" : "",
									"text" : "0.878245"
								}

							}
, 							{
								"box" : 								{
									"id" : "obj-55",
									"maxclass" : "newobj",
									"numinlets" : 1,
									"numoutlets" : 1,
									"outlettype" : [ "" ],
									"patching_rect" : [ 45.0, 118.0, 20.0, 22.0 ],
									"style" : "",
									"text" : "t l"
								}

							}
, 							{
								"box" : 								{
									"id" : "obj-56",
									"maxclass" : "newobj",
									"numinlets" : 2,
									"numoutlets" : 2,
									"outlettype" : [ "", "" ],
									"patching_rect" : [ 884.0, 404.0, 239.0, 22.0 ],
									"style" : "",
									"text" : "route /millumin/layer:opacity_synch/opacity"
								}

							}
, 							{
								"box" : 								{
									"id" : "obj-57",
									"maxclass" : "newobj",
									"numinlets" : 2,
									"numoutlets" : 2,
									"outlettype" : [ "", "" ],
									"patching_rect" : [ 460.0, 562.0, 271.0, 22.0 ],
									"style" : "",
									"text" : "route /millumin/layer:row_synch/effect1/read_row"
								}

							}
, 							{
								"box" : 								{
									"id" : "obj-58",
									"maxclass" : "newobj",
									"numinlets" : 2,
									"numoutlets" : 2,
									"outlettype" : [ "", "" ],
									"patching_rect" : [ 46.0, 562.0, 275.0, 22.0 ],
									"style" : "",
									"text" : "route /millumin/layer:both_synch/effect1/read_row"
								}

							}
 ],
						"lines" : [ 							{
								"patchline" : 								{
									"destination" : [ "obj-31", 1 ],
									"order" : 2,
									"source" : [ "obj-13", 0 ]
								}

							}
, 							{
								"patchline" : 								{
									"destination" : [ "obj-41", 0 ],
									"hidden" : 1,
									"order" : 1,
									"source" : [ "obj-13", 0 ]
								}

							}
, 							{
								"patchline" : 								{
									"destination" : [ "obj-42", 0 ],
									"hidden" : 1,
									"order" : 0,
									"source" : [ "obj-13", 0 ]
								}

							}
, 							{
								"patchline" : 								{
									"destination" : [ "obj-1", 0 ],
									"hidden" : 1,
									"order" : 0,
									"source" : [ "obj-14", 0 ]
								}

							}
, 							{
								"patchline" : 								{
									"destination" : [ "obj-30", 1 ],
									"order" : 2,
									"source" : [ "obj-14", 0 ]
								}

							}
, 							{
								"patchline" : 								{
									"destination" : [ "obj-33", 0 ],
									"hidden" : 1,
									"order" : 1,
									"source" : [ "obj-14", 0 ]
								}

							}
, 							{
								"patchline" : 								{
									"destination" : [ "obj-29", 1 ],
									"order" : 2,
									"source" : [ "obj-15", 0 ]
								}

							}
, 							{
								"patchline" : 								{
									"destination" : [ "obj-75", 0 ],
									"hidden" : 1,
									"order" : 1,
									"source" : [ "obj-15", 0 ]
								}

							}
, 							{
								"patchline" : 								{
									"destination" : [ "obj-83", 0 ],
									"hidden" : 1,
									"order" : 0,
									"source" : [ "obj-15", 0 ]
								}

							}
, 							{
								"patchline" : 								{
									"destination" : [ "obj-12", 0 ],
									"hidden" : 1,
									"order" : 1,
									"source" : [ "obj-16", 0 ]
								}

							}
, 							{
								"patchline" : 								{
									"destination" : [ "obj-21", 0 ],
									"hidden" : 1,
									"order" : 0,
									"source" : [ "obj-16", 0 ]
								}

							}
, 							{
								"patchline" : 								{
									"destination" : [ "obj-25", 1 ],
									"order" : 2,
									"source" : [ "obj-16", 0 ]
								}

							}
, 							{
								"patchline" : 								{
									"destination" : [ "obj-32", 1 ],
									"order" : 2,
									"source" : [ "obj-17", 0 ]
								}

							}
, 							{
								"patchline" : 								{
									"destination" : [ "obj-49", 0 ],
									"hidden" : 1,
									"order" : 1,
									"source" : [ "obj-17", 0 ]
								}

							}
, 							{
								"patchline" : 								{
									"destination" : [ "obj-50", 0 ],
									"hidden" : 1,
									"order" : 0,
									"source" : [ "obj-17", 0 ]
								}

							}
, 							{
								"patchline" : 								{
									"destination" : [ "obj-20", 0 ],
									"source" : [ "obj-18", 0 ]
								}

							}
, 							{
								"patchline" : 								{
									"destination" : [ "obj-15", 0 ],
									"midpoints" : [ 55.5, 344.5, 55.5, 344.5 ],
									"order" : 4,
									"source" : [ "obj-19", 0 ]
								}

							}
, 							{
								"patchline" : 								{
									"destination" : [ "obj-16", 0 ],
									"midpoints" : [ 55.5, 378.0, 33.0, 378.0, 33.0, 723.0, 55.5, 723.0 ],
									"order" : 2,
									"source" : [ "obj-19", 0 ]
								}

							}
, 							{
								"patchline" : 								{
									"destination" : [ "obj-22", 0 ],
									"order" : 1,
									"source" : [ "obj-19", 0 ]
								}

							}
, 							{
								"patchline" : 								{
									"destination" : [ "obj-23", 0 ],
									"order" : 0,
									"source" : [ "obj-19", 0 ]
								}

							}
, 							{
								"patchline" : 								{
									"destination" : [ "obj-58", 0 ],
									"midpoints" : [ 55.5, 378.0, 33.0, 378.0, 33.0, 549.0, 55.5, 549.0 ],
									"order" : 3,
									"source" : [ "obj-19", 0 ]
								}

							}
, 							{
								"patchline" : 								{
									"destination" : [ "obj-84", 0 ],
									"midpoints" : [ 55.5, 378.0, 33.0, 378.0, 33.0, 918.0, 53.5, 918.0 ],
									"order" : 5,
									"source" : [ "obj-19", 0 ]
								}

							}
, 							{
								"patchline" : 								{
									"destination" : [ "obj-26", 0 ],
									"source" : [ "obj-20", 0 ]
								}

							}
, 							{
								"patchline" : 								{
									"destination" : [ "obj-13", 0 ],
									"midpoints" : [ 469.5, 366.0, 473.5, 366.0 ],
									"order" : 2,
									"source" : [ "obj-22", 0 ]
								}

							}
, 							{
								"patchline" : 								{
									"destination" : [ "obj-14", 0 ],
									"midpoints" : [ 469.5, 384.0, 447.0, 384.0, 447.0, 723.0, 481.0, 723.0 ],
									"order" : 0,
									"source" : [ "obj-22", 0 ]
								}

							}
, 							{
								"patchline" : 								{
									"destination" : [ "obj-57", 0 ],
									"midpoints" : [ 469.5, 384.0, 447.0, 384.0, 447.0, 504.0, 469.5, 504.0 ],
									"order" : 3,
									"source" : [ "obj-22", 0 ]
								}

							}
, 							{
								"patchline" : 								{
									"destination" : [ "obj-82", 0 ],
									"midpoints" : [ 469.5, 378.0, 447.0, 378.0, 447.0, 918.0, 479.0, 918.0 ],
									"order" : 1,
									"source" : [ "obj-22", 0 ]
								}

							}
, 							{
								"patchline" : 								{
									"destination" : [ "obj-17", 0 ],
									"midpoints" : [ 893.5, 390.0, 870.0, 390.0, 870.0, 723.0, 893.5, 723.0 ],
									"order" : 0,
									"source" : [ "obj-23", 0 ]
								}

							}
, 							{
								"patchline" : 								{
									"destination" : [ "obj-56", 0 ],
									"order" : 1,
									"source" : [ "obj-23", 0 ]
								}

							}
, 							{
								"patchline" : 								{
									"destination" : [ "obj-81", 0 ],
									"midpoints" : [ 893.5, 390.0, 870.0, 390.0, 870.0, 918.0, 891.5, 918.0 ],
									"order" : 2,
									"source" : [ "obj-23", 0 ]
								}

							}
, 							{
								"patchline" : 								{
									"destination" : [ "obj-55", 0 ],
									"source" : [ "obj-5", 0 ]
								}

							}
, 							{
								"patchline" : 								{
									"destination" : [ "obj-19", 0 ],
									"order" : 1,
									"source" : [ "obj-55", 0 ]
								}

							}
, 							{
								"patchline" : 								{
									"destination" : [ "obj-20", 1 ],
									"midpoints" : [ 54.5, 156.5, 144.0, 156.5 ],
									"order" : 0,
									"source" : [ "obj-55", 0 ]
								}

							}
, 							{
								"patchline" : 								{
									"destination" : [ "obj-45", 0 ],
									"hidden" : 1,
									"order" : 1,
									"source" : [ "obj-56", 0 ]
								}

							}
, 							{
								"patchline" : 								{
									"destination" : [ "obj-46", 0 ],
									"hidden" : 1,
									"order" : 0,
									"source" : [ "obj-56", 0 ]
								}

							}
, 							{
								"patchline" : 								{
									"destination" : [ "obj-53", 1 ],
									"order" : 2,
									"source" : [ "obj-56", 0 ]
								}

							}
, 							{
								"patchline" : 								{
									"destination" : [ "obj-37", 0 ],
									"hidden" : 1,
									"order" : 1,
									"source" : [ "obj-57", 0 ]
								}

							}
, 							{
								"patchline" : 								{
									"destination" : [ "obj-38", 0 ],
									"hidden" : 1,
									"order" : 0,
									"source" : [ "obj-57", 0 ]
								}

							}
, 							{
								"patchline" : 								{
									"destination" : [ "obj-54", 1 ],
									"order" : 2,
									"source" : [ "obj-57", 0 ]
								}

							}
, 							{
								"patchline" : 								{
									"destination" : [ "obj-2", 0 ],
									"hidden" : 1,
									"order" : 1,
									"source" : [ "obj-58", 0 ]
								}

							}
, 							{
								"patchline" : 								{
									"destination" : [ "obj-27", 1 ],
									"order" : 2,
									"source" : [ "obj-58", 0 ]
								}

							}
, 							{
								"patchline" : 								{
									"destination" : [ "obj-6", 0 ],
									"hidden" : 1,
									"order" : 0,
									"source" : [ "obj-58", 0 ]
								}

							}
, 							{
								"patchline" : 								{
									"destination" : [ "obj-63", 0 ],
									"hidden" : 1,
									"order" : 1,
									"source" : [ "obj-81", 0 ]
								}

							}
, 							{
								"patchline" : 								{
									"destination" : [ "obj-64", 0 ],
									"hidden" : 1,
									"order" : 0,
									"source" : [ "obj-81", 0 ]
								}

							}
, 							{
								"patchline" : 								{
									"destination" : [ "obj-78", 1 ],
									"order" : 2,
									"source" : [ "obj-81", 0 ]
								}

							}
, 							{
								"patchline" : 								{
									"destination" : [ "obj-67", 0 ],
									"hidden" : 1,
									"order" : 1,
									"source" : [ "obj-82", 0 ]
								}

							}
, 							{
								"patchline" : 								{
									"destination" : [ "obj-68", 0 ],
									"hidden" : 1,
									"order" : 0,
									"source" : [ "obj-82", 0 ]
								}

							}
, 							{
								"patchline" : 								{
									"destination" : [ "obj-79", 1 ],
									"order" : 2,
									"source" : [ "obj-82", 0 ]
								}

							}
, 							{
								"patchline" : 								{
									"destination" : [ "obj-72", 0 ],
									"hidden" : 1,
									"order" : 1,
									"source" : [ "obj-84", 0 ]
								}

							}
, 							{
								"patchline" : 								{
									"destination" : [ "obj-73", 0 ],
									"hidden" : 1,
									"order" : 0,
									"source" : [ "obj-84", 0 ]
								}

							}
, 							{
								"patchline" : 								{
									"destination" : [ "obj-80", 1 ],
									"order" : 2,
									"source" : [ "obj-84", 0 ]
								}

							}
 ],
						"styles" : [ 							{
								"name" : "AudioStatus_Menu",
								"default" : 								{
									"bgfillcolor" : 									{
										"type" : "color",
										"color" : [ 0.294118, 0.313726, 0.337255, 1 ],
										"color1" : [ 0.454902, 0.462745, 0.482353, 0.0 ],
										"color2" : [ 0.290196, 0.309804, 0.301961, 1.0 ],
										"angle" : 270.0,
										"proportion" : 0.39,
										"autogradient" : 0
									}

								}
,
								"parentstyle" : "",
								"multi" : 0
							}
, 							{
								"name" : "newobjBlue-1",
								"default" : 								{
									"accentcolor" : [ 0.317647, 0.654902, 0.976471, 1.0 ]
								}
,
								"parentstyle" : "",
								"multi" : 0
							}
, 							{
								"name" : "newobjGreen-1",
								"default" : 								{
									"accentcolor" : [ 0.0, 0.533333, 0.168627, 1.0 ]
								}
,
								"parentstyle" : "",
								"multi" : 0
							}
, 							{
								"name" : "newobjYellow-1",
								"default" : 								{
									"accentcolor" : [ 0.82517, 0.78181, 0.059545, 1.0 ],
									"fontsize" : [ 12.059008 ]
								}
,
								"parentstyle" : "",
								"multi" : 0
							}
 ]
					}
,
					"patching_rect" : [ 582.0, 451.0, 91.0, 22.0 ],
					"saved_object_attributes" : 					{
						"description" : "",
						"digest" : "",
						"globalpatchername" : "",
						"style" : "",
						"tags" : ""
					}
,
					"style" : "",
					"text" : "p debug_mode"
				}

			}
, 			{
				"box" : 				{
					"id" : "obj-5",
					"maxclass" : "message",
					"numinlets" : 2,
					"numoutlets" : 1,
					"outlettype" : [ "" ],
					"patching_rect" : [ 31.0, 266.0, 173.0, 22.0 ],
					"style" : "",
					"text" : "/ableton/start_from_begining 1"
				}

			}
, 			{
				"box" : 				{
					"id" : "obj-6",
					"maxclass" : "comment",
					"numinlets" : 1,
					"numoutlets" : 0,
					"patching_rect" : [ 48.5, 479.0, 90.0, 20.0 ],
					"style" : "",
					"text" : "Safety Network"
				}

			}
, 			{
				"box" : 				{
					"id" : "obj-1",
					"maxclass" : "newobj",
					"numinlets" : 1,
					"numoutlets" : 0,
					"patching_rect" : [ 31.0, 503.0, 180.0, 22.0 ],
					"style" : "",
					"text" : "udpsend 192.168.179.103 6208"
				}

			}
, 			{
				"box" : 				{
					"id" : "obj-13",
					"maxclass" : "message",
					"numinlets" : 2,
					"numoutlets" : 1,
					"outlettype" : [ "" ],
					"patching_rect" : [ 491.0, 266.0, 89.0, 22.0 ],
					"style" : "",
					"text" : "/ableton/stop 1"
				}

			}
, 			{
				"box" : 				{
					"id" : "obj-2",
					"maxclass" : "newobj",
					"numinlets" : 1,
					"numoutlets" : 0,
					"patching_rect" : [ 31.0, 425.0, 153.0, 22.0 ],
					"style" : "",
					"text" : "udpsend 192.168.0.3 6208"
				}

			}
 ],
		"lines" : [ 			{
				"patchline" : 				{
					"destination" : [ "obj-16", 0 ],
					"order" : 1,
					"source" : [ "obj-10", 0 ]
				}

			}
, 			{
				"patchline" : 				{
					"destination" : [ "obj-31", 0 ],
					"order" : 0,
					"source" : [ "obj-10", 0 ]
				}

			}
, 			{
				"patchline" : 				{
					"destination" : [ "obj-15", 0 ],
					"source" : [ "obj-12", 0 ]
				}

			}
, 			{
				"patchline" : 				{
					"destination" : [ "obj-7", 0 ],
					"source" : [ "obj-13", 0 ]
				}

			}
, 			{
				"patchline" : 				{
					"destination" : [ "obj-21", 0 ],
					"source" : [ "obj-14", 0 ]
				}

			}
, 			{
				"patchline" : 				{
					"destination" : [ "obj-30", 0 ],
					"source" : [ "obj-15", 0 ]
				}

			}
, 			{
				"patchline" : 				{
					"destination" : [ "obj-32", 0 ],
					"source" : [ "obj-15", 1 ]
				}

			}
, 			{
				"patchline" : 				{
					"destination" : [ "obj-18", 0 ],
					"source" : [ "obj-16", 0 ]
				}

			}
, 			{
				"patchline" : 				{
					"destination" : [ "obj-20", 0 ],
					"source" : [ "obj-18", 0 ]
				}

			}
, 			{
				"patchline" : 				{
					"destination" : [ "obj-13", 0 ],
					"source" : [ "obj-19", 0 ]
				}

			}
, 			{
				"patchline" : 				{
					"destination" : [ "obj-22", 0 ],
					"source" : [ "obj-21", 0 ]
				}

			}
, 			{
				"patchline" : 				{
					"destination" : [ "obj-34", 1 ],
					"order" : 2,
					"source" : [ "obj-24", 0 ]
				}

			}
, 			{
				"patchline" : 				{
					"destination" : [ "obj-36", 0 ],
					"order" : 1,
					"source" : [ "obj-24", 0 ]
				}

			}
, 			{
				"patchline" : 				{
					"destination" : [ "obj-38", 0 ],
					"order" : 0,
					"source" : [ "obj-24", 0 ]
				}

			}
, 			{
				"patchline" : 				{
					"destination" : [ "obj-27", 0 ],
					"source" : [ "obj-25", 0 ]
				}

			}
, 			{
				"patchline" : 				{
					"destination" : [ "obj-25", 0 ],
					"source" : [ "obj-26", 1 ]
				}

			}
, 			{
				"patchline" : 				{
					"destination" : [ "obj-5", 0 ],
					"source" : [ "obj-26", 0 ]
				}

			}
, 			{
				"patchline" : 				{
					"destination" : [ "obj-10", 0 ],
					"order" : 1,
					"source" : [ "obj-3", 0 ]
				}

			}
, 			{
				"patchline" : 				{
					"destination" : [ "obj-12", 0 ],
					"order" : 0,
					"source" : [ "obj-3", 0 ]
				}

			}
, 			{
				"patchline" : 				{
					"destination" : [ "obj-24", 0 ],
					"order" : 3,
					"source" : [ "obj-3", 0 ]
				}

			}
, 			{
				"patchline" : 				{
					"destination" : [ "obj-4", 0 ],
					"order" : 2,
					"source" : [ "obj-3", 0 ]
				}

			}
, 			{
				"patchline" : 				{
					"destination" : [ "obj-8", 0 ],
					"order" : 4,
					"source" : [ "obj-3", 0 ]
				}

			}
, 			{
				"patchline" : 				{
					"destination" : [ "obj-35", 0 ],
					"source" : [ "obj-30", 0 ]
				}

			}
, 			{
				"patchline" : 				{
					"destination" : [ "obj-35", 0 ],
					"source" : [ "obj-32", 0 ]
				}

			}
, 			{
				"patchline" : 				{
					"destination" : [ "obj-40", 0 ],
					"source" : [ "obj-33", 0 ]
				}

			}
, 			{
				"patchline" : 				{
					"destination" : [ "obj-37", 0 ],
					"source" : [ "obj-35", 0 ]
				}

			}
, 			{
				"patchline" : 				{
					"destination" : [ "obj-41", 1 ],
					"order" : 0,
					"source" : [ "obj-36", 0 ]
				}

			}
, 			{
				"patchline" : 				{
					"destination" : [ "obj-50", 0 ],
					"order" : 1,
					"source" : [ "obj-36", 0 ]
				}

			}
, 			{
				"patchline" : 				{
					"destination" : [ "obj-52", 0 ],
					"order" : 2,
					"source" : [ "obj-36", 0 ]
				}

			}
, 			{
				"patchline" : 				{
					"destination" : [ "obj-43", 1 ],
					"order" : 0,
					"source" : [ "obj-38", 0 ]
				}

			}
, 			{
				"patchline" : 				{
					"destination" : [ "obj-51", 0 ],
					"order" : 1,
					"source" : [ "obj-38", 0 ]
				}

			}
, 			{
				"patchline" : 				{
					"destination" : [ "obj-53", 0 ],
					"order" : 2,
					"source" : [ "obj-38", 0 ]
				}

			}
, 			{
				"patchline" : 				{
					"destination" : [ "obj-14", 0 ],
					"source" : [ "obj-4", 0 ]
				}

			}
, 			{
				"patchline" : 				{
					"destination" : [ "obj-29", 0 ],
					"source" : [ "obj-40", 0 ]
				}

			}
, 			{
				"patchline" : 				{
					"destination" : [ "obj-7", 0 ],
					"source" : [ "obj-5", 0 ]
				}

			}
, 			{
				"patchline" : 				{
					"destination" : [ "obj-40", 1 ],
					"order" : 0,
					"source" : [ "obj-52", 0 ]
				}

			}
, 			{
				"patchline" : 				{
					"destination" : [ "obj-60", 0 ],
					"order" : 1,
					"source" : [ "obj-52", 0 ]
				}

			}
, 			{
				"patchline" : 				{
					"destination" : [ "obj-59", 0 ],
					"order" : 1,
					"source" : [ "obj-53", 0 ]
				}

			}
, 			{
				"patchline" : 				{
					"destination" : [ "obj-62", 1 ],
					"order" : 0,
					"source" : [ "obj-53", 0 ]
				}

			}
, 			{
				"patchline" : 				{
					"destination" : [ "obj-65", 0 ],
					"source" : [ "obj-62", 0 ]
				}

			}
, 			{
				"patchline" : 				{
					"destination" : [ "obj-62", 0 ],
					"source" : [ "obj-64", 0 ]
				}

			}
, 			{
				"patchline" : 				{
					"destination" : [ "obj-1", 0 ],
					"midpoints" : [ 40.5, 411.0, 18.0, 411.0, 18.0, 489.0, 40.5, 489.0 ],
					"order" : 0,
					"source" : [ "obj-7", 0 ]
				}

			}
, 			{
				"patchline" : 				{
					"destination" : [ "obj-2", 0 ],
					"order" : 1,
					"source" : [ "obj-7", 0 ]
				}

			}
, 			{
				"patchline" : 				{
					"destination" : [ "obj-26", 0 ],
					"source" : [ "obj-9", 0 ]
				}

			}
 ],
		"parameters" : 		{
			"obj-51" : [ "live.button[1]", "live.button", 0 ],
			"obj-50" : [ "live.button", "live.button", 0 ],
			"obj-9" : [ "live.text", "live.text", 0 ],
			"obj-19" : [ "live.text[3]", "live.text", 0 ],
			"obj-37" : [ "live.text[1]", "live.text", 0 ]
		}
,
		"dependency_cache" : [ 			{
				"name" : "thru.maxpat",
				"bootpath" : "C74:/patchers/m4l/Pluggo for Live resources/patches",
				"type" : "JSON",
				"implicit" : 1
			}
 ],
		"autosave" : 0,
		"styles" : [ 			{
				"name" : "AudioStatus_Menu",
				"default" : 				{
					"bgfillcolor" : 					{
						"type" : "color",
						"color" : [ 0.294118, 0.313726, 0.337255, 1 ],
						"color1" : [ 0.454902, 0.462745, 0.482353, 0.0 ],
						"color2" : [ 0.290196, 0.309804, 0.301961, 1.0 ],
						"angle" : 270.0,
						"proportion" : 0.39,
						"autogradient" : 0
					}

				}
,
				"parentstyle" : "",
				"multi" : 0
			}
, 			{
				"name" : "newobjBlue-1",
				"default" : 				{
					"accentcolor" : [ 0.317647, 0.654902, 0.976471, 1.0 ]
				}
,
				"parentstyle" : "",
				"multi" : 0
			}
, 			{
				"name" : "newobjGreen-1",
				"default" : 				{
					"accentcolor" : [ 0.0, 0.533333, 0.168627, 1.0 ]
				}
,
				"parentstyle" : "",
				"multi" : 0
			}
, 			{
				"name" : "newobjYellow-1",
				"default" : 				{
					"accentcolor" : [ 0.82517, 0.78181, 0.059545, 1.0 ],
					"fontsize" : [ 12.059008 ]
				}
,
				"parentstyle" : "",
				"multi" : 0
			}
 ]
	}

}
